<?xml version="1.0" encoding="UTF-8"?>
<svg version="1.1" xmlns="http://www.w3.org/2000/svg" width="500" height="500">
<path d="M0 0 C165 0 330 0 500 0 C500 165 500 330 500 500 C335 500 170 500 0 500 C0 335 0 170 0 0 Z " fill="#302E2B" transform="translate(0,0)"/>
<path d="M0 0 C4.2679812 4.2679812 4.22617575 11.53380514 4.24884033 17.3236084 C4.2380545 18.42521301 4.2380545 18.42521301 4.22705078 19.54907227 C4.22734283 20.35017929 4.22763489 21.15128632 4.22793579 21.97666931 C4.22655706 24.59003027 4.21106552 27.20309592 4.1953125 29.81640625 C4.19157718 31.64200179 4.18873266 33.46759936 4.18673706 35.29319763 C4.17914149 40.07221113 4.15952847 44.85110092 4.1373291 49.63006592 C4.11678238 54.51703214 4.10771655 59.40401856 4.09765625 64.29101562 C4.07627836 73.86073111 4.04219222 83.43035522 4 93 C5.00065491 92.99333817 6.00130981 92.98667633 7.0322876 92.97981262 C16.50571128 92.91875004 25.97909454 92.87390735 35.45267105 92.84456348 C40.32204704 92.82896989 45.19126297 92.80784809 50.06054688 92.77368164 C54.76789656 92.74086166 59.47509317 92.72309967 64.18254852 92.71536827 C65.9701147 92.70986511 67.7576734 92.69911987 69.54517365 92.68280983 C79.45825093 92.59603223 88.47968538 92.83082412 98 96 C98.67263382 96.22264526 99.34526764 96.44529053 100.0382843 96.67468262 C118.09826842 103.15793348 132.17723705 116.08230766 141 133 C148.44337554 149.2876585 150.6628705 171.38920693 144.375 188.4375 C140.0500949 199.27663347 134.15148337 207.6983218 126 216 C125.32324219 216.70125 124.64648438 217.4025 123.94921875 218.125 C111.41252702 230.21310954 94.90427408 236.19703917 77.67797852 236.11352539 C76.47675606 236.11374443 76.47675606 236.11374443 75.25126648 236.1139679 C72.62711801 236.11327605 70.00304219 236.105518 67.37890625 236.09765625 C65.55045104 236.09578948 63.72199532 236.0943668 61.89353943 236.09336853 C57.09809979 236.08956374 52.30269078 236.07975097 47.50726318 236.06866455 C42.60705988 236.05840649 37.70685159 236.05386152 32.80664062 236.04882812 C23.20441368 236.03812677 13.60220939 236.02107498 4 236 C4.00444122 236.73978592 4.00888245 237.47957184 4.01345825 238.24177551 C4.05374874 245.25793719 4.08409209 252.27405792 4.10362434 259.29030323 C4.11400406 262.89630433 4.12805516 266.50220879 4.15087891 270.1081543 C4.17281704 273.59652832 4.18461217 277.08481016 4.18975449 280.57324791 C4.19517768 282.53330402 4.21075598 284.49332373 4.22659302 286.45332336 C4.2292247 307.7148067 -2.69276817 325.17759294 -17.1875 340.75 C-33.01774021 355.65065788 -52.08402353 361.51726211 -73.48828125 361.21484375 C-79.28713037 361.02021905 -84.52175275 359.89779393 -90 358 C-90.97066406 357.67128906 -91.94132812 357.34257812 -92.94140625 357.00390625 C-111.85377962 349.87786205 -126.05785921 335.7119334 -134.60546875 317.59765625 C-139.09919372 306.51489173 -140.33179641 295.62964395 -140.58203125 283.7421875 C-140.62371681 281.86776474 -140.62371681 281.86776474 -140.66624451 279.95547485 C-140.73891207 275.92850275 -140.78559845 271.90248705 -140.8125 267.875 C-140.81736923 267.1897525 -140.82223846 266.504505 -140.82725525 265.79849243 C-140.9466435 244.58588543 -139.49040754 225.9948198 -130.58642578 206.50195312 C-128.95994263 202.91157543 -127.51110364 199.28543014 -126.08984375 195.609375 C-119.32885116 178.30461675 -111.3271017 161.59427895 -103 145 C-102.47374023 143.95021973 -101.94748047 142.90043945 -101.40527344 141.81884766 C-85.59800192 110.4803046 -66.35848152 80.84401658 -45 53 C-44.51241211 52.36223633 -44.02482422 51.72447266 -43.52246094 51.06738281 C-37.76701243 43.56691049 -31.77677396 36.28978856 -25.6328125 29.10546875 C-23.11661783 26.15579651 -20.68107031 23.14529582 -18.25 20.125 C-15.24377304 16.42873162 -12.13329921 13.00903226 -8.70703125 9.703125 C-5.62697222 6.63011416 -2.82520731 3.30609366 0 0 Z " fill="#FEFEFE" transform="translate(318,89)"/>
<path d="M0 0 C0.98871094 0.35191406 1.97742188 0.70382813 2.99609375 1.06640625 C13.67657667 5.1889366 26.8200782 11.82130527 33 22 C33 22.66 33 23.32 33 24 C31.234375 25.55859375 31.234375 25.55859375 28.75 27.4375 C23.55998919 31.4839491 18.724703 35.83330406 13.91015625 40.30859375 C11.45199414 42.58198126 8.95719976 44.79581047 6.4375 47 C1.2237339 51.67880313 -3.72696216 56.61759262 -8.6875 61.5625 C-9.49582275 62.36623047 -10.30414551 63.16996094 -11.13696289 63.99804688 C-15.40727755 68.27933695 -19.52183998 72.63558137 -23.46508789 77.2199707 C-25.54736041 79.63477092 -27.71147853 81.97050622 -29.875 84.3125 C-33.89380593 88.72353173 -37.72865324 93.23735358 -41.47265625 97.8828125 C-43.35047916 100.21237942 -45.26024117 102.51257397 -47.18359375 104.8046875 C-55.90433931 115.22463242 -64.07647718 125.96349944 -72 137 C-72.53399414 137.74314453 -73.06798828 138.48628906 -73.61816406 139.25195312 C-106.40763489 183.67133025 -106.40763489 183.67133025 -130 233 C-130.66 233 -131.32 233 -132 233 C-133.29003906 231.17431641 -133.29003906 231.17431641 -134.765625 228.6015625 C-135.31879395 227.65595459 -135.87196289 226.71034668 -136.44189453 225.73608398 C-137.03856934 224.70942627 -137.63524414 223.68276855 -138.25 222.625 C-144.73993474 211.71669075 -151.89851788 201.75523599 -160 192 C-160.76908691 191.06752441 -160.76908691 191.06752441 -161.55371094 190.11621094 C-172.63557988 176.74154152 -184.62535488 164.17752688 -197 152 C-198.00108519 151.00108637 -199.00162734 150.00162469 -200 149 C-197.88017167 148.02866656 -195.75516062 147.07320814 -193.625 146.125 C-192.44164062 145.59132812 -191.25828125 145.05765625 -190.0390625 144.5078125 C-179.34008062 140.27312711 -168.39459174 140.7363129 -157.0859375 140.8046875 C-155.2617712 140.80842372 -153.43760287 140.81126781 -151.61343384 140.81326294 C-146.84265474 140.82085145 -142.07199996 140.84045819 -137.30126953 140.8626709 C-132.42091554 140.88323304 -127.5405412 140.89228671 -122.66015625 140.90234375 C-113.10671661 140.92370915 -103.5533687 140.95778648 -94 141 C-94.00999275 139.50234856 -94.00999275 139.50234856 -94.02018738 137.97444153 C-94.08128437 128.51604564 -94.12610892 119.05769035 -94.15543652 109.59914112 C-94.17102152 104.73764058 -94.1921272 99.87630069 -94.22631836 95.01489258 C-94.25916951 90.31402213 -94.27690674 85.61330519 -94.28463173 80.91232872 C-94.29012939 79.12838008 -94.30086348 77.34443881 -94.31719017 75.56055641 C-94.43440662 62.20935608 -93.65695701 49.79068763 -87.25 37.75 C-86.90219482 37.07670654 -86.55438965 36.40341309 -86.19604492 35.7097168 C-82.20790902 28.19267391 -77.24722226 21.79010844 -71 16 C-70.48566406 15.48050781 -69.97132813 14.96101563 -69.44140625 14.42578125 C-51.62084393 -2.62830527 -23.16233685 -8.49399393 0 0 Z " fill="#FDFDFD" transform="translate(272,41)"/>
<path d="M0 0 C0.66 0 1.32 0 2 0 C3.55942095 2.05023472 4.97643903 4.09227465 6.375 6.25 C7.03266357 7.25341431 7.03266357 7.25341431 7.70361328 8.27709961 C17.94957623 24.05631441 27.15563839 40.40338844 36 57 C36.47904785 57.89493164 36.9580957 58.78986328 37.45166016 59.71191406 C43.91980593 71.82518604 50.06415015 84.08650192 56.0625 96.4375 C56.38828033 97.10602997 56.71406067 97.77455994 57.04971313 98.46334839 C60.33052406 105.20656188 63.55028387 111.90210456 66 119 C40.45506866 119.46667244 21.32592513 115.88392215 2.1875 97.75 C-3.26838355 92.0244943 -7.41569687 86.04366323 -11 79 C-11.30341309 78.41637695 -11.60682617 77.83275391 -11.91943359 77.23144531 C-19.62538716 61.753 -20.00318782 40.79967164 -14.9375 24.4375 C-11.31762258 15.65955363 -6.6636682 6.85405872 0 0 Z " fill="#FDFDFD" transform="translate(52,206)"/>
</svg>
