<?xml version="1.0" encoding="UTF-8"?>
<svg version="1.1" xmlns="http://www.w3.org/2000/svg" width="500" height="500">
<path d="M0 0 C165 0 330 0 500 0 C500 165 500 330 500 500 C335 500 170 500 0 500 C0 335 0 170 0 0 Z " fill="#302E2B" transform="translate(0,0)"/>
<path d="M0 0 C2.24163279 3.36244918 2.24797026 4.4436574 2.24050903 8.37199402 C2.24463303 10.04418251 2.24463303 10.04418251 2.24884033 11.75015259 C2.2380545 13.58542007 2.2380545 13.58542007 2.22705078 15.45776367 C2.22734283 16.74567307 2.22763489 18.03358246 2.22793579 19.36051941 C2.22851027 22.8933426 2.21674071 26.42603034 2.20278788 29.95882201 C2.19029627 33.65038223 2.18911126 37.34194546 2.18673706 41.03352356 C2.18051767 48.02456559 2.16410066 55.01554516 2.14403808 62.00655967 C2.12169335 69.96535657 2.11068924 77.92415644 2.10064721 85.88297689 C2.07973482 102.2553545 2.04454994 118.62766929 2 135 C2.98342031 134.99308655 2.98342031 134.99308655 3.98670769 134.98603344 C19.97122449 134.87540283 35.95560731 134.79277027 51.94041252 134.74093914 C59.67070172 134.71520493 67.40073469 134.68014672 75.13085938 134.62280273 C81.87186269 134.57282032 88.61268035 134.54067424 95.35386384 134.52955753 C98.92028496 134.52306362 102.48617516 134.50790313 106.05242538 134.47134972 C110.04283513 134.43078405 114.0323337 134.43006 118.02294922 134.43237305 C119.77838799 134.40540848 119.77838799 134.40540848 121.56929016 134.37789917 C130.89399996 134.43620824 137.93745351 136.92259902 144.875 143.25 C151.20907171 150.17010541 152.59516186 157.55893677 152.51757812 166.68530273 C152.52809204 168.22862778 152.52809204 168.22862778 152.53881836 169.8031311 C152.5563211 173.18023235 152.54480165 176.55648503 152.53125 179.93359375 C152.53394732 182.29574239 152.53783174 184.65788994 152.54284668 187.02003479 C152.54873148 191.96178802 152.54021202 196.90325128 152.52148438 201.8449707 C152.49870846 208.16081326 152.51181647 214.47597531 152.53577423 220.79179287 C152.55027018 225.66731334 152.54560852 230.5426741 152.53526306 235.41819954 C152.53260563 237.74607487 152.53583067 240.07396497 152.54518127 242.40182304 C152.55540777 245.66337014 152.53975912 248.92383562 152.51757812 252.18530273 C152.52567505 253.13573959 152.53377197 254.08617645 152.54211426 255.06541443 C152.44667399 262.6897287 150.60566125 269.30632174 146.17578125 275.5859375 C145.25345703 276.47152344 145.25345703 276.47152344 144.3125 277.375 C143.71050781 277.98085938 143.10851562 278.58671875 142.48828125 279.2109375 C134.68612106 284.82065393 127.57936276 285.56978481 118.13647461 285.45410156 C116.87694977 285.45468567 115.61742493 285.45526978 114.31973267 285.45587158 C110.89245567 285.45701155 107.46574736 285.43362035 104.03860164 285.40557575 C100.44719685 285.38044105 96.85577666 285.37821065 93.26429749 285.37347412 C86.47523159 285.36107955 79.68642568 285.32830618 72.89747387 285.28807616 C65.16347091 285.24324826 57.42945504 285.22134383 49.69535434 285.20129442 C33.79675273 285.15956995 17.89840999 285.08928715 2 285 C2.00368717 285.56376815 2.00737434 286.1275363 2.01117325 286.70838833 C2.09969237 300.45603383 2.1655353 314.20362909 2.20724869 327.95149899 C2.22810101 334.60003188 2.25637607 341.24830389 2.30175781 347.89672852 C2.3452986 354.3158069 2.36915486 360.73468736 2.37950897 367.15390205 C2.38688547 369.5998604 2.40129001 372.04580822 2.42292023 374.49168205 C2.45206259 377.92429681 2.45595133 381.3560993 2.45410156 384.78881836 C2.46848267 385.79439285 2.48286377 386.79996735 2.49768066 387.83601379 C2.4518144 395.72979889 0.73633817 401.8532111 -4.5 407.875 C-11.89039106 414.1568324 -17.03050505 415.29736778 -26.63012695 415.25878906 C-28.23591614 415.26404602 -28.23591614 415.26404602 -29.87414551 415.26940918 C-33.41225678 415.27820962 -36.95016794 415.27238192 -40.48828125 415.265625 C-42.95061786 415.26697243 -45.41295422 415.26891361 -47.87528992 415.27142334 C-53.03757254 415.27437257 -58.19978596 415.27008444 -63.36206055 415.26074219 C-69.96949705 415.24936582 -76.57677075 415.25589699 -83.18420124 415.26788712 C-88.27063719 415.27512641 -93.35703478 415.27280795 -98.44347191 415.26763153 C-100.87906094 415.26629983 -103.31465349 415.26792591 -105.75023842 415.27259064 C-109.16081537 415.27768779 -112.57113182 415.26989983 -115.98168945 415.25878906 C-116.983004 415.26283752 -117.98431854 415.26688599 -119.01597595 415.27105713 C-127.50514463 415.22000269 -134.45023368 414.21292709 -141.23828125 408.78515625 C-145.79763019 404.16515078 -148.1275087 397.84519648 -148.12025452 391.42524719 C-148.12162918 390.4871521 -148.12300385 389.54905701 -148.12442017 388.58253479 C-148.11902725 387.04181557 -148.11902725 387.04181557 -148.11352539 385.4699707 C-148.11367142 384.38688629 -148.11381744 383.30380188 -148.1139679 382.18789673 C-148.11327007 378.60050467 -148.10548372 375.01316426 -148.09765625 371.42578125 C-148.09579161 368.9414218 -148.09436792 366.45706198 -148.09336853 363.97270203 C-148.0899378 358.09728397 -148.0820527 352.22188504 -148.07201904 346.34647483 C-148.05974734 339.00116851 -148.05437462 331.6558611 -148.04882812 324.31054688 C-148.03809721 311.20701996 -148.02050332 298.10351528 -148 285 C-162.19 285 -176.38 285 -191 285 C-191 284.67 -191 284.34 -191 284 C-190.443125 283.86464844 -189.88625 283.72929687 -189.3125 283.58984375 C-180.10006254 280.99106494 -174.65299578 275.53051427 -169.421875 267.69921875 C-166.00736121 261.21727087 -163.71129839 254.28957352 -161.51757812 247.31860352 C-138.75656566 175.44336038 -98.25588861 109.4613292 -50 52 C-49.17290527 51.01410889 -49.17290527 51.01410889 -48.32910156 50.00830078 C-38.20303692 37.97262862 -38.20303692 37.97262862 -32.67529297 32.67602539 C-30.99923991 30.99923957 -29.47193307 29.25592823 -27.9375 27.44921875 C-23.45915034 22.29873307 -18.64736064 17.50104605 -13.8125 12.6875 C-12.92369141 11.79482422 -12.03488281 10.90214844 -11.11914062 9.98242188 C-10.26126953 9.12583984 -9.40339844 8.26925781 -8.51953125 7.38671875 C-7.74714111 6.61545654 -6.97475098 5.84419434 -6.17895508 5.04956055 C-4.2064446 3.19418514 -2.20184126 1.57149182 0 0 Z " fill="#FEFEFE" transform="translate(323,40)"/>
<path d="M0 0 C1.61065338 -0.00043808 1.61065338 -0.00043808 3.25384521 -0.00088501 C6.79252282 0.00050502 10.33098821 0.01605111 13.86962891 0.03173828 C16.32727951 0.03546956 18.7849316 0.03831599 21.24258423 0.04031372 C27.70343144 0.04794106 34.16418839 0.06758195 40.625 0.08972168 C47.22085347 0.1101994 53.81672155 0.11931957 60.41259766 0.12939453 C73.34883403 0.15082859 86.28500791 0.18456802 99.22119141 0.22705078 C98.43491867 0.85569031 97.64864594 1.48432983 96.83854675 2.13201904 C94.74673207 3.80638785 92.6619969 5.48816853 90.58447266 7.18017578 C89.92979004 7.71288086 89.27510742 8.24558594 88.60058594 8.79443359 C87.19395288 9.93954522 85.78737966 11.08473034 84.38085938 12.22998047 C80.55712108 15.34008177 76.71659013 18.42503526 72.84619141 21.47705078 C67.78029449 25.52302502 62.99497119 29.84296731 58.22119141 34.22705078 C57.2240929 35.13102468 56.22668459 36.03465695 55.22900391 36.93798828 C44.69837307 46.51573141 34.14013258 56.32980509 24.94775391 67.21923828 C23.10983208 69.35655009 21.20352217 71.42346099 19.28540039 73.48876953 C14.57269412 78.56682046 10.05646282 83.74321232 5.71337891 89.14501953 C3.84250056 91.45869196 1.95387262 93.74891657 0.04150391 96.02783203 C-9.55299182 107.49187836 -18.94968757 119.23680099 -27.11474609 131.77783203 C-27.66388672 132.58607422 -28.21302734 133.39431641 -28.77880859 134.22705078 C-29.10880859 134.22705078 -29.43880859 134.22705078 -29.77880859 134.22705078 C-29.89588323 119.27534476 -29.98391442 104.32367442 -30.03786945 89.37160683 C-30.06359359 82.42824558 -30.098632 75.48517001 -30.15600586 68.54199219 C-30.21137989 61.83760033 -30.24025641 55.13356609 -30.25319481 48.428936 C-30.26241168 45.87493605 -30.28041009 43.32095175 -30.30745888 40.7670784 C-30.34391624 37.18128044 -30.34874668 33.59669657 -30.34643555 30.01074219 C-30.36441193 28.96200928 -30.38238831 27.91327637 -30.40090942 26.83276367 C-30.3513164 19.69115059 -28.86869892 14.15870565 -24.77880859 8.22705078 C-17.320348 1.03863137 -10.04265709 -0.07170959 0 0 Z " fill="#FEFEFE" transform="translate(204.77880859375,24.77294921875)"/>
<path d="M0 0 C0.66 0 1.32 0 2 0 C3.54193726 2.00795887 4.93532509 4.00620693 6.3125 6.125 C6.74836426 6.78878662 7.18422852 7.45257324 7.63330078 8.13647461 C18.29413751 24.56835272 27.80459201 41.7165447 37 59 C37.53705566 60.00562988 38.07411133 61.01125977 38.62744141 62.04736328 C46.78585491 77.3762295 54.37932701 92.91074628 61.67089844 108.66699219 C61.99663849 109.3686853 62.32237854 110.07037842 62.6579895 110.79333496 C63.26316895 112.09838832 63.86568542 113.4046818 64.46481323 114.71252441 C69.50151728 125.57758561 75.84278325 135.74954506 87 141 C88.33475277 141.66382021 89.66840427 142.32986939 91 143 C80.83792383 143.09286877 70.67594939 143.1638505 60.51353455 143.20724869 C55.79418905 143.22808256 51.07513489 143.25632305 46.35595703 143.30175781 C41.79774124 143.34536595 37.23980486 143.36916868 32.68139648 143.37950897 C30.94632573 143.38687356 29.21126947 143.40125483 27.47631836 143.42292023 C25.03726709 143.45215412 22.59935581 143.45594781 20.16015625 143.45410156 C19.45021011 143.46848267 18.74026398 143.48286377 18.00880432 143.49768066 C10.560947 143.43707348 4.34601151 140.04901087 -1 135 C-6.60707786 127.63069767 -7.30044541 121.24728571 -7.30639648 112.28808594 C-7.31472 111.22062637 -7.32304352 110.15316681 -7.33161926 109.05335999 C-7.35568108 105.53032769 -7.36448715 102.00748072 -7.37109375 98.484375 C-7.38006347 96.02825873 -7.38918538 93.572143 -7.39845276 91.11602783 C-7.4149353 85.96812616 -7.42264147 80.82028946 -7.42553711 75.67236328 C-7.43091783 69.0907293 -7.46858936 62.50970993 -7.51428127 55.92824936 C-7.54409173 50.85459183 -7.55126156 45.78108154 -7.55226326 40.70734406 C-7.55645813 38.2817529 -7.56886273 35.85616101 -7.58978081 33.43065643 C-7.61677421 30.02981478 -7.61184468 26.63038791 -7.59936523 23.22949219 C-7.61419952 22.23693924 -7.62903381 21.24438629 -7.64431763 20.22175598 C-7.56443612 12.5389178 -5.56222601 5.56222601 0 0 Z " fill="#FDFDFD" transform="translate(32,182)"/>
<path d="M0 0 C33.66 0 67.32 0 102 0 C98.535 5.445 98.535 5.445 95 11 C93.04880582 14.20129878 91.10811704 17.40562106 89.1875 20.625 C88.67251953 21.48762451 88.15753906 22.35024902 87.62695312 23.23901367 C86.57914861 24.99563662 85.53209857 26.75270984 84.48583984 28.51025391 C83.14000983 30.76539266 81.78459428 33.01438973 80.42578125 35.26171875 C74.91575758 44.43299367 69.88128868 53.80268969 65.02148438 63.33520508 C64.54130859 64.27259521 64.06113281 65.20998535 63.56640625 66.17578125 C63.14302979 67.01020752 62.71965332 67.84463379 62.28344727 68.7043457 C61.01769083 70.96835706 59.60452834 72.96560896 58 75 C57.3709375 73.98421875 56.741875 72.9684375 56.09375 71.921875 C40.73506508 47.1843705 23.56939431 24.31931124 2.8125 3.8125 C1.884375 2.884375 0.95625 1.95625 0 1 C0 0.67 0 0.34 0 0 Z " fill="#FDFDFD" transform="translate(62,175)"/>
</svg>
